<?xml version="1.0" encoding="UTF-8"?>
<svg xmlns="http://www.w3.org/2000/svg" width="76" height="76" viewBox="0 0 76 76" fill="none">
  <mask id="mask0_88_12643" style="mask-type:alpha" maskUnits="userSpaceOnUse" x="0" y="0" width="76" height="76">
    <rect x="0.230469" y="0.5" width="75" height="75" fill="#D9D9D9"></rect>
  </mask>
  <g mask="url(#mask0_88_12643)">
    <path d="M17.7785 63.0002C16.3803 63.0002 15.1894 62.5085 14.2058 61.5249C13.2222 60.5413 12.7305 59.3504 12.7305 57.9522V18.0483C12.7305 16.6501 13.2222 15.4591 14.2058 14.4756C15.1894 13.492 16.3803 13.0002 17.7785 13.0002H57.6824C59.0807 13.0002 60.2716 13.492 61.2552 14.4756C62.2387 15.4591 62.7305 16.6501 62.7305 18.0483V27.243H59.6055V18.0483C59.6055 17.4874 59.4252 17.0267 59.0646 16.6661C58.704 16.3055 58.2433 16.1252 57.6824 16.1252H17.7785C17.2176 16.1252 16.7569 16.3055 16.3963 16.6661C16.0358 17.0267 15.8555 17.4874 15.8555 18.0483V57.9522C15.8555 58.5131 16.0358 58.9738 16.3963 59.3344C16.7569 59.695 17.2176 59.8752 17.7785 59.8752H57.6824C58.2433 59.8752 58.704 59.695 59.0646 59.3344C59.4252 58.9738 59.6055 58.5131 59.6055 57.9522V48.7575H62.7305V57.9522C62.7305 59.3504 62.2387 60.5413 61.2552 61.5249C60.2716 62.5085 59.0807 63.0002 57.6824 63.0002H17.7785ZM42.7785 50.5002C41.3803 50.5002 40.1894 50.0085 39.2058 49.0249C38.2222 48.0413 37.7305 46.8504 37.7305 45.4522V30.5483C37.7305 29.1501 38.2222 27.9591 39.2058 26.9756C40.1894 25.992 41.3803 25.5002 42.7785 25.5002H60.8074C62.2057 25.5002 63.3966 25.992 64.3802 26.9756C65.3637 27.9591 65.8555 29.1501 65.8555 30.5483V45.4522C65.8555 46.8504 65.3637 48.0413 64.3802 49.0249C63.3966 50.0085 62.2057 50.5002 60.8074 50.5002H42.7785ZM60.8074 47.3752C61.3683 47.3752 61.829 47.195 62.1896 46.8344C62.5502 46.4738 62.7305 46.0131 62.7305 45.4522V30.5483C62.7305 29.9874 62.5502 29.5267 62.1896 29.1661C61.829 28.8055 61.3683 28.6252 60.8074 28.6252H42.7785C42.2176 28.6252 41.7569 28.8055 41.3963 29.1661C41.0358 29.5267 40.8555 29.9874 40.8555 30.5483V45.4522C40.8555 46.0131 41.0358 46.4738 41.3963 46.8344C41.7569 47.195 42.2176 47.3752 42.7785 47.3752H60.8074ZM50.2305 42.6877C51.5326 42.6877 52.6393 42.232 53.5508 41.3206C54.4622 40.4091 54.918 39.3023 54.918 38.0002C54.918 36.6982 54.4622 35.5914 53.5508 34.6799C52.6393 33.7685 51.5326 33.3127 50.2305 33.3127C48.9284 33.3127 47.8216 33.7685 46.9102 34.6799C45.9987 35.5914 45.543 36.6982 45.543 38.0002C45.543 39.3023 45.9987 40.4091 46.9102 41.3206C47.8216 42.232 48.9284 42.6877 50.2305 42.6877Z" fill="#ED9507"></path>
  </g>
</svg>
