<?xml version="1.0" encoding="UTF-8"?>
<svg xmlns="http://www.w3.org/2000/svg" width="76" height="76" viewBox="0 0 76 76" fill="none">
  <mask id="mask0_88_12649" style="mask-type:alpha" maskUnits="userSpaceOnUse" x="0" y="0" width="76" height="76">
    <rect x="0.865234" y="0.5" width="75" height="75" fill="#D9D9D9"></rect>
  </mask>
  <g mask="url(#mask0_88_12649)">
    <path d="M36.5263 53.5048C32.608 53.004 29.3308 51.2973 26.6945 48.3846C24.0583 45.472 22.7402 42.0104 22.7402 38C22.7402 33.6597 24.2593 29.9705 27.2975 26.9323C30.3357 23.8941 34.025 22.375 38.3652 22.375C42.3757 22.375 45.8372 23.6831 48.7498 26.2993C51.6625 28.9154 53.3692 32.1827 53.8701 36.1009L50.4927 35.1094C49.8189 32.2969 48.3678 29.9922 46.1392 28.1953C43.9107 26.3984 41.3193 25.5 38.3652 25.5C34.9277 25.5 31.985 26.724 29.5371 29.1719C27.0892 31.6198 25.8652 34.5625 25.8652 38C25.8652 40.9688 26.7737 43.5729 28.5906 45.8125C30.4075 48.0521 32.7022 49.5104 35.4746 50.1875L36.5263 53.5048ZM40.2763 66.0288C39.9578 66.0929 39.6393 66.125 39.3208 66.125H38.3652C34.4746 66.125 30.8184 65.387 27.3965 63.911C23.9746 62.435 20.998 60.4318 18.4668 57.9015C15.9355 55.3712 13.9316 52.3957 12.4551 48.9752C10.9785 45.5545 10.2402 41.8996 10.2402 38.0105C10.2402 34.1213 10.9782 30.4647 12.4542 27.0409C13.9303 23.6171 15.9334 20.6389 18.4637 18.1062C20.9941 15.5735 23.9695 13.5685 27.3901 12.0911C30.8107 10.6137 34.4656 9.875 38.3548 9.875C42.244 9.875 45.9005 10.6133 49.3243 12.0898C52.7481 13.5664 55.7264 15.5703 58.2591 18.1016C60.7917 20.6328 62.7967 23.6094 64.2741 27.0312C65.7515 30.4531 66.4902 34.1094 66.4902 38V38.9255C66.4902 39.234 66.4582 39.5424 66.3941 39.8509L63.3652 38.9375V38C63.3652 31.0208 60.9434 25.1094 56.0996 20.2656C51.2559 15.4219 45.3444 13 38.3652 13C31.3861 13 25.4746 15.4219 20.6309 20.2656C15.7871 25.1094 13.3652 31.0208 13.3652 38C13.3652 44.9792 15.7871 50.8906 20.6309 55.7344C25.4746 60.5781 31.3861 63 38.3652 63H39.3027L40.2763 66.0288ZM62.602 65.464L47.6201 50.422L44.7355 59.1539L38.3652 38L59.5191 44.3702L50.7872 47.2548L65.8292 62.2368L62.602 65.464Z" fill="#ED9507"></path>
  </g>
</svg>
