<?xml version="1.0" encoding="UTF-8"?>
<svg xmlns="http://www.w3.org/2000/svg" width="28" height="28" viewBox="0 0 28 28" fill="none">
  <mask id="mask0_113_2891" style="mask-type:alpha" maskUnits="userSpaceOnUse" x="0" y="0" width="28" height="28">
    <rect x="0.5" y="0.500122" width="27" height="27" fill="#D9D9D9"></rect>
  </mask>
  <g mask="url(#mask0_113_2891)">
    <path d="M14 24.6876C12.5231 24.6876 11.1343 24.4071 9.83362 23.8461C8.53295 23.2851 7.40156 22.5237 6.43944 21.562C5.4773 20.6003 4.71561 19.4694 4.15437 18.1693C3.59312 16.8693 3.3125 15.4802 3.3125 14.002C3.3125 12.5238 3.593 11.1344 4.154 9.83374C4.715 8.53307 5.47634 7.40168 6.43803 6.43956C7.39974 5.47742 8.53063 4.71573 9.83072 4.15449C11.1308 3.59325 12.5199 3.31262 13.9981 3.31262C15.4763 3.31262 16.8657 3.59317 18.1663 4.15426C19.467 4.71536 20.5984 5.47684 21.5605 6.43872C22.5226 7.40059 23.2843 8.53169 23.8456 9.832C24.4068 11.1323 24.6874 12.5217 24.6874 14.0001V15.3717C24.6874 16.3986 24.3349 17.2705 23.6298 17.9873C22.9246 18.7042 22.0584 19.0626 21.0312 19.0626C20.3677 19.0626 19.7526 18.9003 19.1858 18.5758C18.6189 18.2513 18.1711 17.8049 17.8423 17.2366C17.3562 17.8164 16.7818 18.2657 16.1191 18.5844C15.4563 18.9032 14.75 19.0626 14 19.0626C12.5952 19.0626 11.4002 18.57 10.4151 17.5849C9.43004 16.5998 8.9375 15.4049 8.9375 14.0001C8.9375 12.5953 9.43004 11.4004 10.4151 10.4153C11.4002 9.43017 12.5952 8.93762 14 8.93762C15.4048 8.93762 16.5997 9.43017 17.5848 10.4153C18.5699 11.4004 19.0624 12.5953 19.0624 14.0001V15.3717C19.0624 15.9241 19.2525 16.3961 19.6325 16.7877C20.0126 17.1793 20.4788 17.3751 21.0312 17.3751C21.5836 17.3751 22.0498 17.1793 22.4299 16.7877C22.81 16.3961 23 15.9241 23 15.3717V14.0001C23 11.4876 22.1281 9.35947 20.3843 7.61572C18.6406 5.87197 16.5125 5.00009 14 5.00009C11.4875 5.00009 9.35935 5.87197 7.6156 7.61572C5.87185 9.35947 4.99997 11.4876 4.99997 14.0001C4.99997 16.5126 5.87185 18.6407 7.6156 20.3845C9.35935 22.1282 11.4875 23.0001 14 23.0001H19.625V24.6876H14ZM14 17.3751C14.9375 17.3751 15.7343 17.047 16.3906 16.3907C17.0468 15.7345 17.375 14.9376 17.375 14.0001C17.375 13.0626 17.0468 12.2657 16.3906 11.6095C15.7343 10.9532 14.9375 10.6251 14 10.6251C13.0625 10.6251 12.2656 10.9532 11.6093 11.6095C10.9531 12.2657 10.625 13.0626 10.625 14.0001C10.625 14.9376 10.9531 15.7345 11.6093 16.3907C12.2656 17.047 13.0625 17.3751 14 17.3751Z" fill="#ED9507"></path>
  </g>
</svg>
