<?xml version="1.0" encoding="UTF-8"?>
<svg xmlns="http://www.w3.org/2000/svg" width="76" height="76" viewBox="0 0 76 76" fill="none">
  <mask id="mask0_113_4829" style="mask-type:alpha" maskUnits="userSpaceOnUse" x="0" y="0" width="76" height="76">
    <rect x="0.769531" y="0.5" width="75" height="75" fill="#D9D9D9"></rect>
  </mask>
  <g mask="url(#mask0_113_4829)">
    <path d="M47.5209 16.4255C46.8301 16.4255 46.2473 16.187 45.7725 15.7099C45.2978 15.2329 45.0604 14.649 45.0604 13.9581C45.0604 13.2673 45.2989 12.6845 45.7759 12.2097C46.253 11.7349 46.8369 11.4976 47.5277 11.4976C48.2186 11.4976 48.8014 11.7361 49.2762 12.2131C49.7509 12.6901 49.9883 13.274 49.9883 13.9649C49.9883 14.6558 49.7498 15.2386 49.2727 15.7134C48.7958 16.1881 48.2118 16.4255 47.5209 16.4255ZM47.3407 64.5024C46.6498 64.5024 46.067 64.2639 45.5923 63.7869C45.1175 63.3099 44.8801 62.726 44.8801 62.0351C44.8801 61.3442 45.1186 60.7614 45.5956 60.2866C46.0727 59.8119 46.6566 59.5745 47.3474 59.5745C48.0383 59.5745 48.6211 59.813 49.0959 60.2901C49.5707 60.7671 49.808 61.351 49.808 62.0419C49.808 62.7327 49.5695 63.3155 49.0925 63.7903C48.6155 64.265 48.0315 64.5024 47.3407 64.5024ZM59.8407 26.6418C59.1498 26.6418 58.567 26.4033 58.0923 25.9263C57.6175 25.4493 57.3801 24.8654 57.3801 24.1745C57.3801 23.4836 57.6186 22.9008 58.0956 22.4261C58.5727 21.9513 59.1566 21.7139 59.8474 21.7139C60.5383 21.7139 61.1211 21.9524 61.5959 22.4295C62.0707 22.9065 62.308 23.4904 62.308 24.1813C62.308 24.8721 62.0695 25.4549 61.5925 25.9297C61.1155 26.4044 60.5315 26.6418 59.8407 26.6418ZM59.6604 54.4663C58.9696 54.4663 58.3867 54.2278 57.912 53.7509C57.4372 53.2738 57.1998 52.6899 57.1998 51.9991C57.1998 51.3082 57.4383 50.7254 57.9153 50.2506C58.3923 49.7758 58.9763 49.5384 59.6672 49.5384C60.358 49.5384 60.9408 49.777 61.4155 50.254C61.8903 50.731 62.1277 51.3149 62.1277 52.0058C62.1277 52.6967 61.8892 53.2795 61.4122 53.7542C60.9352 54.229 60.3512 54.4663 59.6604 54.4663ZM63.9272 40.464C63.2364 40.464 62.6536 40.2255 62.1788 39.7484C61.704 39.2714 61.4666 38.6875 61.4666 37.9966C61.4666 37.3058 61.7052 36.7229 62.1822 36.2482C62.6592 35.7734 63.2432 35.536 63.934 35.536C64.6248 35.536 65.2076 35.7745 65.6824 36.2516C66.1572 36.7286 66.3945 37.3125 66.3945 38.0034C66.3945 38.6942 66.156 39.2771 65.679 39.7518C65.202 40.2266 64.6181 40.464 63.9272 40.464ZM38.2695 66.125C34.3873 66.125 30.7343 65.387 27.3105 63.911C23.8867 62.435 20.9084 60.4318 18.3757 57.9015C15.843 55.3712 13.838 52.3957 12.3606 48.9752C10.8832 45.5545 10.1445 41.8996 10.1445 38.0105C10.1445 34.1213 10.8828 30.4647 12.3594 27.0409C13.8359 23.6171 15.8398 20.6389 18.3711 18.1062C20.9023 15.5735 23.8789 13.5685 27.3008 12.0911C30.7227 10.6137 34.3789 9.875 38.2695 9.875V13C31.2904 13 25.3789 15.4219 20.5352 20.2656C15.6914 25.1094 13.2695 31.0208 13.2695 38C13.2695 44.9792 15.6914 50.8906 20.5352 55.7344C25.3789 60.5781 31.2904 63 38.2695 63V66.125ZM38.2695 42.6875C36.9514 42.6875 35.8406 42.2358 34.9372 41.3323C34.0338 40.4289 33.582 39.3181 33.582 38C33.582 37.6194 33.6151 37.2658 33.6812 36.9393C33.7473 36.6128 33.8725 36.2993 34.0568 35.9988L27.993 29.875L30.1445 27.7235L36.2684 33.7873C36.5167 33.655 37.1838 33.4968 38.2695 33.3125C39.5877 33.3125 40.6984 33.7642 41.6019 34.6677C42.5053 35.5711 42.957 36.6819 42.957 38C42.957 39.3181 42.5053 40.4289 41.6019 41.3323C40.6984 42.2358 39.5877 42.6875 38.2695 42.6875Z" fill="#ED9507"></path>
  </g>
</svg>
