<?xml version="1.0" encoding="UTF-8"?>
<svg xmlns="http://www.w3.org/2000/svg" width="28" height="28" viewBox="0 0 28 28" fill="none">
  <mask id="mask0_113_2896" style="mask-type:alpha" maskUnits="userSpaceOnUse" x="0" y="0" width="28" height="28">
    <rect x="0.5" y="0.500122" width="27" height="27" fill="#D9D9D9"></rect>
  </mask>
  <g mask="url(#mask0_113_2896)">
    <path d="M22.3704 23.5626C20.2502 23.5626 18.1203 23.0697 15.9806 22.0838C13.841 21.098 11.8751 19.7073 10.0831 17.9116C8.29099 16.1159 6.90205 14.1501 5.91623 12.014C4.93041 9.87799 4.4375 7.74988 4.4375 5.6297C4.4375 5.28911 4.55 5.00528 4.775 4.77822C5 4.55115 5.28125 4.43762 5.61875 4.43762H9.28794C9.57207 4.43762 9.82268 4.53029 10.0397 4.71564C10.2568 4.90098 10.3949 5.12995 10.454 5.40254L11.0987 8.71259C11.1435 9.01981 11.1341 9.28376 11.0706 9.50443C11.0072 9.72509 10.8932 9.91043 10.7288 10.0604L8.13048 12.5895C8.54876 13.3554 9.02653 14.0798 9.56379 14.7627C10.1011 15.4457 10.6827 16.0979 11.3086 16.7196C11.9259 17.3369 12.5822 17.9102 13.2774 18.4395C13.9726 18.9689 14.7233 19.4614 15.5296 19.9172L18.0543 17.3708C18.2303 17.1876 18.4434 17.0593 18.6936 16.9857C18.9439 16.9121 19.2038 16.8941 19.4735 16.9316L22.5975 17.5677C22.8817 17.6427 23.1135 17.7876 23.2931 18.0025C23.4727 18.2174 23.5624 18.4612 23.5624 18.7338V22.3813C23.5624 22.7188 23.4489 23.0001 23.2219 23.2251C22.9948 23.4501 22.711 23.5626 22.3704 23.5626ZM7.33218 10.9929L9.33988 9.07175C9.37594 9.0429 9.39938 9.00323 9.4102 8.95275C9.42102 8.90226 9.41922 8.85539 9.4048 8.81213L8.91584 6.29818C8.90142 6.24048 8.87619 6.19722 8.84013 6.16838C8.80408 6.13952 8.7572 6.12509 8.69951 6.12509H6.29372C6.25047 6.12509 6.21441 6.13952 6.18555 6.16838C6.1567 6.19722 6.14227 6.23327 6.14227 6.27655C6.19996 7.0453 6.3258 7.82631 6.51979 8.61959C6.7138 9.41286 6.98459 10.204 7.33218 10.9929ZM17.1197 20.7155C17.8653 21.0631 18.6431 21.3288 19.453 21.5127C20.2628 21.6966 21.0197 21.8059 21.7235 21.8405C21.7668 21.8405 21.8029 21.8261 21.8317 21.7972C21.8605 21.7684 21.875 21.7323 21.875 21.689V19.3222C21.875 19.2645 21.8605 19.2176 21.8317 19.1816C21.8029 19.1455 21.7596 19.1203 21.7019 19.1059L19.3394 18.6256C19.2961 18.6111 19.2583 18.6093 19.2258 18.6202C19.1934 18.631 19.1591 18.6544 19.1231 18.6905L17.1197 20.7155Z" fill="#ED9507"></path>
  </g>
</svg>
