<?xml version="1.0" encoding="UTF-8"?>
<svg xmlns="http://www.w3.org/2000/svg" width="170" height="70" viewBox="0 0 170 70" fill="none">
  <path fill-rule="evenodd" clip-rule="evenodd" d="M24.4219 69.774V8.72175V0H33.1436H36.6318H45.3535H45.3541V8.72175H45.3535V69.774H36.6318V8.72175H33.1436V69.774H24.4219Z" fill="#1E2021"></path>
  <path fill-rule="evenodd" clip-rule="evenodd" d="M8.72175 0H0V8.72175V61.0522V69.774H8.72175L12.2099 69.774H20.9316L20.9322 69.774V61.0522H20.9316V34.887H12.2099V61.0522H8.72175V8.72175H12.2099V17.4435H20.9316V8.72175H20.9322V0H20.9316H12.2099H8.72175ZM12.2097 34.887H10.4654V43.6087H12.2097V34.887Z" fill="#1E2021"></path>
  <path fill-rule="evenodd" clip-rule="evenodd" d="M57.5635 0H48.8418V8.72175V61.0522V69.774H57.5635L61.0517 69.774H69.7734L69.774 69.774V61.0522H69.7734V34.887H61.0517V61.0522H57.5635V8.72175H61.0517V17.4435H69.7734V8.72175H69.774V0H69.7734H61.0517H57.5635ZM61.0515 34.887H59.3072V43.6087H61.0515V34.887Z" fill="#ED9507"></path>
  <path d="M169.651 0.388672V15.2689H166.72V9.2238H160.068V15.2689H157.137V0.388672H160.068V6.39332H166.72V0.388672H169.651Z" fill="#1E2021"></path>
  <path d="M144.279 0.388672H154.307V3.21915H150.688V15.2689H147.757V3.21915H144.279V0.388672Z" fill="#1E2021"></path>
  <path d="M123.324 0.490234H126.761L129.935 9.8308L129.47 9.62863L132.24 2.7344L133.595 6.75772L129.309 15.9568L123.324 0.490234ZM130.785 0.490234H133.696L137.355 9.52754L136.83 9.44667L139.559 0.490234H142.713L136.971 15.9163L130.785 0.490234Z" fill="#1E2021"></path>
  <path d="M99.7488 0.388672C100.679 0.388672 101.508 0.509978 102.236 0.75259C102.963 0.981724 103.57 1.31869 104.055 1.76347C104.554 2.19479 104.931 2.72045 105.187 3.34045C105.443 3.94699 105.571 4.63439 105.571 5.40266C105.571 6.00919 105.477 6.61572 105.288 7.22225C105.113 7.82878 104.817 8.3814 104.399 8.8801C103.994 9.3788 103.455 9.78316 102.781 10.0932C102.108 10.3897 101.272 10.5379 100.274 10.5379H98.1718V15.2689H95.2402V0.388672H99.7488ZM100.254 7.70747C100.699 7.70747 101.07 7.63334 101.366 7.48508C101.663 7.33682 101.892 7.14812 102.054 6.91898C102.229 6.68985 102.35 6.45398 102.418 6.21137C102.498 5.95528 102.539 5.7194 102.539 5.50375C102.539 5.34201 102.512 5.13983 102.458 4.89722C102.418 4.64113 102.323 4.38504 102.175 4.12894C102.027 3.87285 101.798 3.6572 101.487 3.48198C101.191 3.30676 100.787 3.21915 100.274 3.21915H98.1718V7.70747H100.254ZM103.004 9.52707L106.683 15.2689H103.267L99.5062 9.60794L103.004 9.52707Z" fill="#1E2021"></path>
  <path d="M120.106 4.13154C120.106 4.13154 118.855 2.78666 119.111 0.309082L122.008 0.776495C122.008 0.776495 121.886 2.87125 120.107 4.13154H120.106Z" fill="#ED9507"></path>
  <path d="M120.258 4.50956C120.258 4.50956 121.603 5.75982 124.08 5.5046L123.613 2.60693C123.613 2.60693 121.518 2.72881 120.258 4.50813V4.50956Z" fill="#ED9507"></path>
  <path d="M115.111 15.4844C119.309 15.4844 122.712 12.0812 122.712 7.88308C122.712 3.68497 119.309 0.281738 115.111 0.281738C110.913 0.281738 107.51 3.68497 107.51 7.88308C107.51 12.0812 110.913 15.4844 115.111 15.4844Z" fill="#1E2021"></path>
  <path d="M118.798 10.3432H111.424C110.28 10.3432 109.354 9.41691 109.354 8.27315C109.354 7.12939 110.28 6.20312 111.424 6.20312H118.8C119.944 6.20312 120.87 7.12939 120.87 8.27315C120.87 9.41691 119.944 10.3432 118.8 10.3432H118.798Z" fill="#FAF4F6"></path>
  <path d="M114.138 8.04721L111.076 7.09356L110.97 7.43236L112.396 7.9296C112.228 8.1553 112.162 8.4525 112.24 8.7459C112.378 9.25845 112.904 9.56207 113.416 9.42473C113.834 9.31263 114.108 8.94235 114.122 8.53095L114.126 8.52998L114.138 8.04721Z" fill="#1E2021"></path>
  <path d="M116.084 8.04698L119.146 7.09333L119.252 7.43213L117.825 7.92937C117.994 8.15507 118.06 8.45227 117.981 8.74567C117.844 9.25822 117.318 9.56184 116.806 9.4245C116.387 9.3124 116.114 8.94212 116.1 8.53072L116.096 8.52975L116.084 8.04698Z" fill="#1E2021"></path>
  <path d="M91.9094 13.7729C91.7342 13.9616 91.4579 14.157 91.0805 14.3592C90.7031 14.5479 90.2651 14.7231 89.7664 14.8849C89.2811 15.0466 88.7824 15.1747 88.2703 15.269C87.7581 15.3768 87.2729 15.4307 86.8146 15.4307C85.6015 15.4307 84.5098 15.2555 83.5393 14.9051C82.5689 14.5412 81.7399 14.0425 81.0525 13.409C80.3651 12.762 79.8395 12.0005 79.4756 11.1244C79.1116 10.2483 78.9297 9.29131 78.9297 8.25347C78.9297 6.89215 79.1319 5.71278 79.5362 4.71538C79.9541 3.70449 80.5134 2.86883 81.2143 2.20838C81.9286 1.53446 82.7441 1.03576 83.6606 0.712275C84.5906 0.388792 85.5611 0.227051 86.572 0.227051C87.5289 0.227051 88.405 0.334878 89.2003 0.550533C89.9955 0.75271 90.6694 1.0088 91.222 1.3188L90.2718 4.04819C90.0292 3.91341 89.7057 3.77862 89.3014 3.64384C88.897 3.50905 88.4859 3.40123 88.0681 3.32036C87.6502 3.22601 87.2796 3.17883 86.9561 3.17883C86.1474 3.17883 85.433 3.27992 84.813 3.4821C84.193 3.68427 83.6674 3.98754 83.2361 4.39189C82.8182 4.79625 82.5015 5.30169 82.2858 5.90822C82.0702 6.50127 81.9623 7.19541 81.9623 7.99064C81.9623 8.69152 82.0836 9.32501 82.3263 9.8911C82.5689 10.4437 82.9058 10.9155 83.3371 11.3063C83.7819 11.6972 84.3009 11.9937 84.8939 12.1959C85.5004 12.3981 86.1676 12.4992 86.8955 12.4992C87.3133 12.4992 87.6974 12.4722 88.0479 12.4183C88.3983 12.3509 88.6948 12.2498 88.9374 12.115V10.3157H86.3698V7.4852H91.9094V13.7729Z" fill="#1E2021"></path>
  <path d="M163.722 50.6455C164.908 50.6455 165.941 50.8522 166.822 51.2655C167.72 51.6609 168.412 52.2629 168.897 53.0716C169.4 53.8623 169.652 54.8597 169.652 56.0637C169.652 56.7825 169.535 57.4834 169.302 58.1663C169.086 58.8312 168.726 59.4332 168.223 59.9723C167.738 60.5115 167.109 60.9428 166.336 61.2662C165.582 61.5897 164.665 61.7515 163.587 61.7515H160.622V69.7844H159.301V50.6455H163.722ZM163.587 60.4845C164.521 60.4845 165.294 60.3407 165.905 60.0532C166.534 59.7477 167.019 59.3703 167.361 58.9211C167.72 58.4538 167.972 57.9686 168.115 57.4654C168.277 56.9622 168.358 56.495 168.358 56.0637C168.358 55.4527 168.259 54.8956 168.062 54.3924C167.864 53.8892 167.567 53.4579 167.172 53.0985C166.795 52.7211 166.327 52.4336 165.77 52.2359C165.213 52.0203 164.575 51.9124 163.856 51.9124H160.622V60.4845H163.587Z" fill="#ED9507"></path>
  <path d="M141.456 63.3149C141.456 64.4291 141.68 65.3905 142.13 66.1992C142.597 67.0079 143.226 67.6369 144.016 68.0862C144.807 68.5175 145.706 68.7331 146.712 68.7331C147.736 68.7331 148.644 68.5175 149.435 68.0862C150.243 67.6369 150.872 67.0079 151.322 66.1992C151.789 65.3905 152.022 64.4291 152.022 63.3149V50.6455H153.316V63.3958C153.316 64.7795 153.02 65.9656 152.427 66.954C151.852 67.9424 151.061 68.6972 150.055 69.2183C149.066 69.7395 147.952 70 146.712 70C145.472 70 144.349 69.7395 143.343 69.2183C142.354 68.6972 141.572 67.9424 140.997 66.954C140.422 65.9656 140.135 64.7795 140.135 63.3958V50.6455H141.456V63.3149Z" fill="#ED9507"></path>
  <path d="M115.783 60.2422C115.783 58.8944 116.035 57.6365 116.538 56.4684C117.041 55.2823 117.742 54.24 118.641 53.3414C119.539 52.4249 120.572 51.7151 121.741 51.2119C122.927 50.6908 124.194 50.4302 125.541 50.4302C126.889 50.4302 128.156 50.6908 129.342 51.2119C130.528 51.7151 131.571 52.4249 132.469 53.3414C133.368 54.24 134.068 55.2823 134.572 56.4684C135.093 57.6365 135.353 58.8944 135.353 60.2422C135.353 61.59 135.093 62.857 134.572 64.043C134.068 65.2111 133.368 66.2445 132.469 67.143C131.571 68.0415 130.528 68.7424 129.342 69.2456C128.156 69.7488 126.889 70.0004 125.541 70.0004C124.194 70.0004 122.927 69.7578 121.741 69.2725C120.572 68.7873 119.539 68.1044 118.641 67.2239C117.742 66.3433 117.041 65.31 116.538 64.1239C116.035 62.9378 115.783 61.6439 115.783 60.2422ZM117.131 60.2692C117.131 61.4373 117.347 62.5335 117.778 63.5578C118.209 64.5822 118.811 65.4807 119.584 66.2535C120.357 67.0262 121.246 67.6372 122.253 68.0865C123.277 68.5178 124.364 68.7334 125.514 68.7334C126.7 68.7334 127.806 68.5178 128.83 68.0865C129.854 67.6372 130.753 67.0262 131.526 66.2535C132.298 65.4807 132.9 64.5822 133.332 63.5578C133.781 62.5335 134.006 61.4283 134.006 60.2422C134.006 59.0741 133.781 57.9779 133.332 56.9536C132.9 55.9113 132.298 55.0037 131.526 54.231C130.753 53.4403 129.854 52.8203 128.83 52.371C127.806 51.9218 126.709 51.6971 125.541 51.6971C124.355 51.6971 123.25 51.9307 122.226 52.398C121.201 52.8472 120.303 53.4672 119.53 54.258C118.775 55.0487 118.182 55.9652 117.751 57.0075C117.338 58.0318 117.131 59.1191 117.131 60.2692Z" fill="#ED9507"></path>
  <path d="M104.49 50.6455C105.209 50.6455 105.919 50.7533 106.619 50.969C107.338 51.1667 107.985 51.4901 108.56 51.9394C109.153 52.3707 109.63 52.9278 109.989 53.6107C110.348 54.2936 110.528 55.1112 110.528 56.0637C110.528 56.7825 110.42 57.4834 110.205 58.1663C109.989 58.8312 109.639 59.4332 109.153 59.9723C108.668 60.5115 108.039 60.9428 107.266 61.2662C106.494 61.5897 105.541 61.7515 104.409 61.7515H101.444V69.7844H100.123V50.6455H104.49ZM104.328 60.4845C105.281 60.4845 106.071 60.3497 106.7 60.0802C107.329 59.8106 107.824 59.4602 108.183 59.0289C108.542 58.5976 108.794 58.1303 108.938 57.6272C109.099 57.106 109.18 56.6028 109.18 56.1176C109.18 55.5425 109.072 55.0034 108.857 54.5002C108.659 53.9971 108.363 53.5568 107.967 53.1794C107.572 52.784 107.096 52.4785 106.539 52.2629C105.982 52.0293 105.362 51.9124 104.679 51.9124H101.444V60.4845H104.328ZM107.078 61.0775L112.388 69.7844H110.852L105.514 61.1045L107.078 61.0775Z" fill="#ED9507"></path>
  <path d="M94.5912 68.4369C94.2678 68.6525 93.8724 68.8592 93.4052 69.0569C92.9559 69.2366 92.4707 69.3983 91.9495 69.5421C91.4284 69.6859 90.8892 69.7937 90.3321 69.8656C89.793 69.9554 89.2809 70.0004 88.7956 70.0004C87.2861 70.0004 85.9203 69.7578 84.6983 69.2725C83.4943 68.7694 82.4609 68.0865 81.5983 67.2239C80.7358 66.3433 80.0708 65.328 79.6036 64.1778C79.1543 63.0097 78.9297 61.7518 78.9297 60.404C78.9297 58.9483 79.1813 57.6095 79.6845 56.3875C80.2056 55.1655 80.9155 54.1142 81.814 53.2336C82.7125 52.3351 83.7548 51.6432 84.9409 51.158C86.127 50.6728 87.3849 50.4302 88.7148 50.4302C89.7211 50.4302 90.6646 50.556 91.5452 50.8076C92.4437 51.0592 93.2524 51.4006 93.9712 51.8319L93.486 53.018C93.0727 52.7664 92.6055 52.5507 92.0843 52.371C91.5631 52.1733 91.024 52.0206 90.4669 51.9128C89.9278 51.8049 89.3887 51.751 88.8496 51.751C87.6275 51.751 86.4954 51.9667 85.4531 52.398C84.4108 52.8293 83.5033 53.4313 82.7305 54.204C81.9578 54.9768 81.3557 55.8843 80.9244 56.9266C80.4931 57.9689 80.2775 59.1011 80.2775 60.3231C80.2775 61.5092 80.4752 62.6144 80.8705 63.6387C81.2839 64.6451 81.8589 65.5346 82.5957 66.3074C83.3505 67.0621 84.249 67.6552 85.2913 68.0865C86.3337 68.4998 87.4928 68.7065 88.7687 68.7065C89.5235 68.7065 90.3142 68.6166 91.1408 68.4369C91.9675 68.2572 92.6773 67.9966 93.2704 67.6552V62.3448H88.9574V61.0779H94.5912V68.4369Z" fill="#ED9507"></path>
  <path d="M149.396 42.4163L159.403 19.3584H159.644L169.651 42.4163H164.588L158.198 26.2004L161.363 24.0303L153.707 42.4163H149.396ZM156.239 34.3988H162.9L164.437 38.076H154.882L156.239 34.3988Z" fill="#1E2021"></path>
  <path d="M134.586 43.3206L117.767 28.1295L119.063 28.8528L119.153 42.4163H114.723V19.3584H114.904L131.361 34.4892L130.396 34.0673L130.306 20.2325H134.706V43.3206H134.586Z" fill="#1E2021"></path>
  <path d="M104.625 20.2324H108.995V42.4163H104.625V20.2324Z" fill="#1E2021"></path>
  <path d="M98.7927 43.3206L81.9739 28.1295L83.27 28.8528L83.3604 42.4163H78.9297V19.3584H79.1105L95.5676 34.4892L94.6031 34.0673L94.5126 20.2325H98.9132V43.3206H98.7927Z" fill="#1E2021"></path>
  <path d="M146.747 37.7444C146.747 39.6734 146.366 41.3211 145.602 42.6875C144.838 44.0539 143.773 45.0988 142.407 45.8222C141.061 46.5657 139.493 46.9676 137.705 47.0279V42.778C139.071 42.6976 140.187 42.2756 141.051 41.512C141.915 40.7485 142.347 39.4624 142.347 37.654V20.2324H146.747V37.7444Z" fill="#1E2021"></path>
</svg>
