<?xml version="1.0" encoding="UTF-8"?>
<svg xmlns="http://www.w3.org/2000/svg" width="105" height="36" viewBox="0 0 105 36" fill="none">
  <path d="M20.473 24.1898C20.6221 24.3887 20.7464 24.6124 20.8458 24.9107C20.9452 25.1841 20.995 25.4576 20.995 25.7061C20.995 26.3773 20.7464 26.949 20.2244 27.3964C19.7272 27.819 19.1306 28.0427 18.4595 28.0427C18.1363 28.0427 17.8381 27.9682 17.5398 27.819C17.2388 27.6843 16.9808 27.4693 16.794 27.1976L8.71533 16.5585L5.1607 19.9392V25.7807C5.1607 26.4519 4.93698 26.9987 4.51441 27.4213C4.09183 27.8439 3.5201 28.0427 2.82409 28.0427C2.15294 28.0427 1.60607 27.8439 1.15864 27.3964C0.947281 27.1848 0.781036 26.9325 0.669951 26.6548C0.558867 26.3771 0.505249 26.0797 0.512341 25.7807V4.25406C0.512341 3.60777 0.736059 3.08576 1.18349 2.63832C1.63093 2.21574 2.20265 1.99202 2.89867 1.99202C3.56982 1.99202 4.11669 2.19089 4.53926 2.61346C4.96184 3.03604 5.1607 3.58291 5.1607 4.25406V14.3959L17.0923 2.66318C17.6641 2.09145 18.2606 1.79316 18.9069 1.79316C19.4787 1.79316 19.9509 2.04174 20.3487 2.51403C20.7464 2.98633 20.9452 3.48348 20.9452 4.00549C20.9452 4.52749 20.7215 4.99979 20.2741 5.44722L12.1705 13.2028L20.473 24.1898ZM42.8945 18.1246C42.8945 20.0883 42.447 21.8781 41.5522 23.4441C40.6573 25.035 39.4393 26.253 37.8732 27.123C36.3321 27.993 34.6169 28.4156 32.7526 28.4156C30.8634 28.4156 29.1482 27.993 27.6071 27.123C26.0908 26.253 24.8727 25.035 23.9779 23.4441C23.083 21.8781 22.6356 20.0883 22.6356 18.1246C22.6356 16.136 23.083 14.3462 23.9779 12.7802C24.8727 11.1893 26.0908 9.9713 27.6071 9.07643C29.1774 8.19459 30.9517 7.74031 32.7526 7.75898C34.6169 7.75898 36.3321 8.20641 37.8732 9.07643C39.4393 9.9713 40.6573 11.1893 41.5522 12.7802C42.447 14.3462 42.8945 16.136 42.8945 18.1246ZM38.4201 18.1246C38.4201 16.9066 38.1715 15.8128 37.6495 14.8434C37.1524 13.8988 36.4564 13.1531 35.6112 12.6311C34.7412 12.109 33.7966 11.8605 32.7526 11.8605C31.7086 11.8605 30.764 12.109 29.9188 12.6311C29.0488 13.1531 28.3777 13.8988 27.8556 14.8434C27.3585 15.8128 27.1099 16.9066 27.1099 18.1246C27.1099 19.3177 27.3585 20.4115 27.8556 21.3561C28.3777 22.3006 29.0488 23.0215 29.9188 23.5435C30.764 24.0655 31.7086 24.339 32.7526 24.339C33.7966 24.339 34.7412 24.0655 35.6112 23.5435C36.4564 23.0215 37.1524 22.3006 37.6495 21.3561C38.1715 20.4115 38.4201 19.3177 38.4201 18.1246ZM50.824 25.7807C50.824 26.427 50.6003 26.9739 50.1777 27.3964C49.9745 27.6121 49.7272 27.7814 49.4527 27.893C49.1782 28.0045 48.8829 28.0556 48.5868 28.0427C47.9405 28.0427 47.3937 27.8439 46.9711 27.3964C46.7633 27.1834 46.601 26.9303 46.4942 26.6525C46.3873 26.3747 46.3382 26.0781 46.3497 25.7807V10.3939C46.3497 9.74758 46.5485 9.22557 46.9711 8.77814C47.1827 8.56678 47.435 8.40054 47.7128 8.28945C47.9905 8.17837 48.2878 8.12475 48.5868 8.13184C49.2331 8.13184 49.7551 8.35556 50.1777 8.77814C50.6003 9.22557 50.824 9.74758 50.824 10.3939V25.7807ZM48.5371 5.72066C47.692 5.72066 47.0954 5.57151 46.7474 5.29808C46.3994 5.02465 46.2254 4.55235 46.2254 3.85634V3.13547C46.2254 2.43946 46.4242 1.96717 46.7971 1.69373C47.17 1.4203 47.7665 1.27116 48.5868 1.27116C49.4569 1.27116 50.0534 1.4203 50.4014 1.69373C50.7494 1.96717 50.9235 2.43946 50.9235 3.13547V3.85634C50.9235 4.57721 50.7494 5.0495 50.3766 5.32294C50.0286 5.57151 49.4071 5.72066 48.5371 5.72066ZM66.0368 7.75898C68.5723 7.75898 70.3372 8.5047 71.3066 10.021C72.2761 11.5125 72.7484 13.6005 72.7484 16.2603V25.7807C72.7484 26.427 72.5495 26.9739 72.1269 27.3964C71.7044 27.8439 71.1575 28.0427 70.5112 28.0427C70.2152 28.0556 69.9198 28.0045 69.6453 27.893C69.3708 27.7814 69.1235 27.6121 68.9203 27.3964C68.709 27.1848 68.5427 26.9325 68.4316 26.6548C68.3205 26.3771 68.2669 26.0797 68.274 25.7807V16.2603C68.274 14.8931 68.0006 13.8242 67.4289 13.0288C66.8571 12.2582 65.8628 11.8605 64.4708 11.8605C63.0539 11.8605 61.9105 12.2831 61.0902 13.1033C60.2699 13.9485 59.8722 14.9925 59.8722 16.2603V25.7807C59.8722 26.427 59.6485 26.9739 59.2259 27.3964C59.0227 27.6121 58.7754 27.7814 58.5009 27.893C58.2263 28.0045 57.931 28.0556 57.635 28.0427C56.9887 28.0427 56.4418 27.8439 56.0192 27.3964C55.8114 27.1834 55.6491 26.9303 55.5423 26.6525C55.4355 26.3747 55.3863 26.0781 55.3978 25.7807V10.3939C55.3978 9.74758 55.5967 9.22557 56.0192 8.77814C56.2309 8.56678 56.4832 8.40054 56.7609 8.28945C57.0386 8.17837 57.336 8.12475 57.635 8.13184C58.2813 8.13184 58.8033 8.35556 59.2259 8.77814C59.6485 9.22557 59.8722 9.74758 59.8722 10.3939V11.0402C60.5433 10.1453 61.4133 9.37472 62.4822 8.72842C63.5759 8.08212 64.7442 7.75898 66.0368 7.75898ZM82.418 25.7807C82.418 26.427 82.2191 26.9739 81.7717 27.3964C81.3491 27.8439 80.8022 28.0427 80.1559 28.0427C79.5345 28.0427 79.0125 27.8439 78.5899 27.3964C78.3821 27.1834 78.2198 26.9303 78.113 26.6525C78.0061 26.3747 77.957 26.0781 77.9685 25.7807V2.76261C77.9617 2.46369 78.0155 2.1665 78.1268 1.88899C78.2381 1.61147 78.4044 1.35939 78.6159 1.14797C78.8273 0.936555 79.0794 0.770185 79.3569 0.658912C79.6344 0.54764 79.9316 0.493775 80.2305 0.500572C80.8519 0.500572 81.374 0.72429 81.7965 1.14687C82.2191 1.5943 82.418 2.11631 82.418 2.76261V25.7807ZM101.857 8.13184C102.503 8.13184 103.05 8.35556 103.472 8.77814C103.895 9.22557 104.094 9.74758 104.094 10.3939V26.2281C104.094 29.4596 103.224 31.8211 101.484 33.2877C99.7685 34.7543 97.4319 35.5 94.5236 35.5C93.6784 35.5 92.8333 35.4254 91.9384 35.3011C91.0684 35.152 90.3475 34.978 89.8007 34.7543C88.5826 34.2323 87.9861 33.5114 87.9861 32.5917C87.9861 32.4177 88.0109 32.2188 88.0855 31.9951C88.2346 31.4482 88.4832 31.0505 88.8561 30.7522C89.2041 30.4788 89.6018 30.3296 90.0244 30.3296C90.2729 30.3296 90.5215 30.3545 90.7452 30.4291L91.6401 30.8019C92.0876 30.9759 92.535 31.1251 93.0322 31.2494C93.5044 31.3488 94.0016 31.3985 94.5236 31.3985C96.2885 31.3985 97.5811 31.0256 98.4262 30.2799C99.2465 29.5093 99.6691 28.2167 99.6691 26.3773V26.0044C98.3765 27.6202 96.3631 28.4156 93.6287 28.4156C92.3361 28.4156 91.1927 28.1173 90.2232 27.5207C89.2289 26.8993 88.4584 26.0541 87.9115 24.9853C87.3646 23.8915 87.0912 22.6735 87.0912 21.2815V10.3939C87.0912 9.74758 87.2901 9.22557 87.7126 8.77814C87.9243 8.56678 88.1766 8.40054 88.4543 8.28945C88.732 8.17837 89.0294 8.12475 89.3284 8.13184C89.9747 8.13184 90.4967 8.35556 90.9193 8.77814C91.3418 9.22557 91.5407 9.74758 91.5407 10.3939V19.9392C91.5407 21.5052 91.8887 22.6238 92.5847 23.2949C93.2559 23.991 94.2502 24.339 95.5676 24.339C96.8602 24.339 97.8545 23.9412 98.5754 23.1955C99.2714 22.4498 99.6443 21.3561 99.6443 19.9392V10.3939C99.6443 9.74758 99.8431 9.22557 100.266 8.77814C100.688 8.35556 101.21 8.13184 101.857 8.13184Z" fill="#335EEA"></path>
</svg>
