<?xml version="1.0" encoding="UTF-8"?>
<svg xmlns="http://www.w3.org/2000/svg" width="76" height="76" viewBox="0 0 76 76" fill="none">
  <mask id="mask0_88_12656" style="mask-type:alpha" maskUnits="userSpaceOnUse" x="0" y="0" width="76" height="76">
    <rect x="0.5" y="0.5" width="75" height="75" fill="#D9D9D9"></rect>
  </mask>
  <g mask="url(#mask0_88_12656)">
    <path d="M58.7933 27.6632C56.1646 27.6632 53.8819 26.8179 51.945 25.1272C50.0081 23.4364 48.8554 21.317 48.4868 18.769H27.4351C27.1026 21.0366 26.1421 22.9747 24.5535 24.5833C22.965 26.1919 21.0369 27.1624 18.7692 27.495V48.4865C21.3173 48.8551 23.4367 50.0079 25.1274 51.9448C26.8181 53.8816 27.6634 56.1644 27.6634 58.793C27.6634 61.7097 26.6498 64.1817 24.6226 66.2089C22.5953 68.2361 20.1234 69.2498 17.2067 69.2498C14.2901 69.2498 11.8181 68.2361 9.79086 66.2089C7.76362 64.1817 6.75 61.7097 6.75 58.793C6.75 56.1644 7.59534 53.8816 9.28602 51.9448C10.9767 50.0079 13.0961 48.8551 15.6442 48.4865V27.495C13.0961 27.1264 10.9767 25.9786 9.28602 24.0515C7.59534 22.1243 6.75 19.8427 6.75 17.2065C6.75 14.2898 7.76799 11.8179 9.80398 9.79061C11.84 7.76337 14.2876 6.74976 17.1466 6.74976C19.7828 6.74976 22.0645 7.59509 23.9916 9.28577C25.9186 10.9765 27.0665 13.0959 27.4351 15.644H48.4868C48.8554 13.0959 50.0081 10.9765 51.945 9.28577C53.8819 7.59509 56.1646 6.74976 58.7933 6.74976C61.6689 6.74976 64.1306 7.77364 66.1784 9.8214C68.2261 11.8692 69.25 14.3309 69.25 17.2065C69.25 20.1231 68.2261 22.5951 66.1784 24.6223C64.1306 26.6496 61.6689 27.6632 58.7933 27.6632ZM17.1688 66.1848C19.2334 66.1848 20.9778 65.4597 22.402 64.0094C23.8263 62.5591 24.5384 60.8329 24.5384 58.8309C24.5384 56.7664 23.8263 55.022 22.402 53.5977C20.9778 52.1735 19.2334 51.4613 17.1688 51.4613C15.1668 51.4613 13.4407 52.1735 11.9904 53.5977C10.5401 55.022 9.81492 56.7664 9.81492 58.8309C9.81492 60.8329 10.5401 62.5591 11.9904 64.0094C13.4407 65.4597 15.1668 66.1848 17.1688 66.1848ZM17.1688 24.5983C19.2334 24.5983 20.9778 23.8738 22.402 22.4249C23.8263 20.976 24.5384 19.2342 24.5384 17.1996C24.5384 15.1649 23.8263 13.4354 22.402 12.0112C20.9778 10.5869 19.2334 9.87476 17.1688 9.87476C15.1668 9.87476 13.4407 10.5869 11.9904 12.0112C10.5401 13.4354 9.81492 15.1649 9.81492 17.1996C9.81492 19.2342 10.5401 20.976 11.9904 22.4249C13.4407 23.8738 15.1668 24.5983 17.1688 24.5983ZM58.7933 69.2498C55.8766 69.2498 53.4047 68.2362 51.3774 66.2089C49.3502 64.1817 48.3366 61.7242 48.3366 58.8366C48.3366 55.949 49.3502 53.4771 51.3774 51.4208C53.4047 49.3645 55.8766 48.3363 58.7933 48.3363C61.7099 48.3363 64.1819 49.3645 66.2091 51.4208C68.2364 53.4771 69.25 55.949 69.25 58.8366C69.25 61.7242 68.2364 64.1817 66.2091 66.2089C64.1819 68.2361 61.7099 69.2498 58.7933 69.2498ZM58.8002 66.1848C60.8348 66.1848 62.5643 65.4597 63.9886 64.0094C65.4129 62.5591 66.125 60.8329 66.125 58.8309C66.125 56.7664 65.4129 55.022 63.9886 53.5977C62.5643 52.1735 60.8348 51.4613 58.8002 51.4613C56.7655 51.4613 55.0238 52.1735 53.5748 53.5977C52.1259 55.022 51.4015 56.7664 51.4015 58.8309C51.4015 60.8329 52.1259 62.5591 53.5748 64.0094C55.0238 65.4597 56.7655 66.1848 58.8002 66.1848ZM58.8002 24.5983C60.8348 24.5983 62.5643 23.8738 63.9886 22.4249C65.4129 20.976 66.125 19.2342 66.125 17.1996C66.125 15.1649 65.4129 13.4354 63.9886 12.0112C62.5643 10.5869 60.8348 9.87476 58.8002 9.87476C56.7655 9.87476 55.0238 10.5869 53.5748 12.0112C52.1259 13.4354 51.4015 15.1649 51.4015 17.1996C51.4015 19.2342 52.1259 20.976 53.5748 22.4249C55.0238 23.8738 56.7655 24.5983 58.8002 24.5983Z" fill="#ED9507"></path>
  </g>
</svg>
