<?xml version="1.0" encoding="UTF-8"?>
<svg xmlns="http://www.w3.org/2000/svg" width="19" height="24" viewBox="0 0 19 24" fill="none">
  <path d="M2.6218 8.27098H13.125V5.85431C13.125 4.84737 12.7725 3.99146 12.0677 3.2866C11.3628 2.58174 10.5069 2.22931 9.49997 2.22931C8.49302 2.22931 7.63712 2.58174 6.93226 3.2866C6.2274 3.99146 5.87497 4.84737 5.87497 5.85431H4.0625C4.0625 4.34546 4.59153 3.06201 5.64958 2.00396C6.70766 0.945899 7.99112 0.41687 9.49997 0.41687C11.0088 0.41687 12.2923 0.945899 13.3504 2.00396C14.4084 3.06201 14.9374 4.34546 14.9374 5.85431V8.27098H16.3781C16.9807 8.27098 17.4955 8.48438 17.9222 8.91118C18.349 9.33797 18.5624 9.85267 18.5624 10.4553V21.7949C18.5624 22.3976 18.349 22.9123 17.9222 23.339C17.4955 23.7658 16.9807 23.9793 16.3781 23.9793H2.6218C2.01919 23.9793 1.50449 23.7658 1.0777 23.339C0.650902 22.9123 0.4375 22.3976 0.4375 21.7949V10.4553C0.4375 9.85267 0.650902 9.33797 1.0777 8.91118C1.50449 8.48438 2.01919 8.27098 2.6218 8.27098ZM2.6218 22.1668H16.3781C16.4866 22.1668 16.5757 22.1319 16.6454 22.0622C16.7151 21.9925 16.75 21.9034 16.75 21.7949V10.4553C16.75 10.3468 16.7151 10.2577 16.6454 10.188C16.5757 10.1183 16.4866 10.0834 16.3781 10.0834H2.6218C2.51336 10.0834 2.42427 10.1183 2.35455 10.188C2.28483 10.2577 2.24997 10.3468 2.24997 10.4553V21.7949C2.24997 21.9034 2.28483 21.9925 2.35455 22.0622C2.42427 22.1319 2.51336 22.1668 2.6218 22.1668ZM9.49997 18.2397C10.0871 18.2397 10.5863 18.034 10.9976 17.6227C11.4089 17.2114 11.6145 16.7122 11.6145 16.1251C11.6145 15.538 11.4089 15.0388 10.9976 14.6275C10.5863 14.2162 10.0871 14.0106 9.49997 14.0106C8.91284 14.0106 8.41364 14.2162 8.00236 14.6275C7.59106 15.0388 7.38542 15.538 7.38542 16.1251C7.38542 16.7122 7.59106 17.2114 8.00236 17.6227C8.41364 18.034 8.91284 18.2397 9.49997 18.2397Z" fill="#FAF4F6"></path>
</svg>
