<?xml version="1.0" encoding="UTF-8"?>
<svg xmlns="http://www.w3.org/2000/svg" width="101" height="50" viewBox="0 0 101 50" fill="none">
  <g clip-path="url(#clip0_1036_3117)">
    <path d="M0 48.0141V14.0684L24.3852 0V15.2634C24.3852 15.9744 23.8103 16.5341 23.1145 16.5341C22.4186 16.5341 21.8438 15.9593 21.8438 15.2634V4.41715L2.55651 15.5508V48.0141C2.55651 48.7248 1.98167 49.2846 1.28582 49.2846C0.589963 49.2846 0.0151273 48.7097 0.0151273 48.0141H0Z" fill="#737373"></path>
    <path d="M42.4607 1.27069V35.201L18.0756 49.2695V34.006C18.0756 33.2951 18.6504 32.7354 19.3463 32.7354C20.0421 32.7354 20.617 33.3102 20.617 34.006V44.8524L39.8893 33.7188V1.27069C39.9195 0.574836 40.4792 0 41.1899 0C41.901 0 42.4607 0.574836 42.4607 1.27069Z" fill="#737373"></path>
    <path d="M4.13074 32.9622L16.4141 20.6789L25.4904 29.7552L31.1027 24.143H29.0756V6.20207C29.0756 5.49109 29.6504 4.9314 30.3463 4.9314C31.0421 4.9314 31.617 5.50623 31.617 6.20207V21.5865H37.2594L25.4904 33.3555L16.4141 24.2791L10.3027 30.3906H12.7987V48.5432C12.7987 49.2543 12.2238 49.814 11.528 49.814C10.8321 49.814 10.2573 49.2392 10.2573 48.5432V32.9471H4.13074V32.9622Z" fill="#FFDFB5"></path>
    <path d="M98.6755 9.01782C99.3034 9.01782 99.7893 9.19722 100.133 9.55601C100.492 9.9148 100.671 10.3857 100.671 10.9688C100.671 11.4621 100.537 11.8732 100.268 12.2021C99.9987 12.531 99.595 12.6954 99.0567 12.6954C98.6084 12.6954 98.2493 12.5758 97.9805 12.3366C97.7114 12.0975 97.5769 11.7686 97.5769 11.35C97.5769 11.051 97.6366 10.8267 97.756 10.6772C97.8906 10.5128 97.9581 10.4081 97.9581 10.3633C97.9581 10.3184 97.9356 10.2811 97.8906 10.2512C97.846 10.2063 97.7859 10.1839 97.7114 10.1839C97.4571 10.1839 97.1879 10.3708 96.904 10.7445C96.6349 11.1033 96.4034 11.5593 96.2087 12.1124C96.0144 12.6655 95.9175 13.1962 95.9175 13.7045H95.895V17.9203C95.895 18.2492 95.9322 18.4884 96.0071 18.6379C96.0967 18.7874 96.2537 18.892 96.4779 18.9518C96.7171 19.0116 97.0983 19.0415 97.6215 19.0415V19.7815H91.2755V19.0415C91.7091 19.0415 92.0228 19.0116 92.2175 18.9518C92.4118 18.892 92.5386 18.7874 92.5987 18.6379C92.6732 18.4884 92.7108 18.2492 92.7108 17.9203V11.2827C92.7108 10.9389 92.6658 10.7146 92.5762 10.61C92.5014 10.4904 92.3295 10.4306 92.0604 10.4306H91.3205V9.69057L94.8409 9.12994H95.8054V11.193H95.8725C96.5601 9.74289 97.4946 9.01782 98.6755 9.01782Z" fill="#737373"></path>
    <path d="M84.3601 20.0281C82.4766 20.0281 81.0786 19.5796 80.1668 18.6826C79.2547 17.7857 78.7987 16.4028 78.7987 14.5341C78.7987 12.6505 79.2547 11.2527 80.1668 10.3408C81.0937 9.42884 82.5064 8.9729 84.4047 8.9729C86.2735 8.9729 87.6564 9.42139 88.5534 10.3184C89.4504 11.2153 89.8987 12.6057 89.8987 14.4893C89.8987 16.3879 89.443 17.7857 88.5309 18.6826C87.6339 19.5796 86.2437 20.0281 84.3601 20.0281ZM84.3826 19.2432C85.145 19.2432 85.698 18.8845 86.042 18.1669C86.3856 17.4493 86.5578 16.3281 86.5578 14.8032C86.5578 13.0392 86.3856 11.761 86.042 10.9687C85.698 10.1763 85.1299 9.78018 84.3376 9.78018C83.5601 9.78018 82.9997 10.1763 82.6557 10.9687C82.3121 11.7461 82.14 12.942 82.14 14.5566C82.14 16.216 82.3121 17.4119 82.6557 18.1444C82.9997 18.877 83.5752 19.2432 84.3826 19.2432Z" fill="#737373"></path>
    <path d="M71.6587 20.0281C69.7752 20.0281 68.3775 19.5796 67.4654 18.6826C66.5534 17.7857 66.0977 16.4028 66.0977 14.5341C66.0977 12.6505 66.5534 11.2527 67.4654 10.3408C68.3923 9.42884 69.805 8.9729 71.7037 8.9729C73.5725 8.9729 74.955 9.42139 75.852 10.3184C76.749 11.2153 77.1977 12.6057 77.1977 14.4893C77.1977 16.3879 76.7416 17.7857 75.8299 18.6826C74.9329 19.5796 73.5423 20.0281 71.6587 20.0281ZM71.6812 19.2432C72.4436 19.2432 72.9966 18.8845 73.3406 18.1669C73.6846 17.4493 73.8564 16.3281 73.8564 14.8032C73.8564 13.0392 73.6846 11.761 73.3406 10.9687C72.9966 10.1763 72.4289 9.78018 71.6362 9.78018C70.8591 9.78018 70.2983 10.1763 69.9547 10.9687C69.6107 11.7461 69.4389 12.942 69.4389 14.5566C69.4389 16.216 69.6107 17.4119 69.9547 18.1444C70.2983 18.877 70.8738 19.2432 71.6812 19.2432Z" fill="#737373"></path>
    <path d="M55.4855 19.0416V18.8738H55.3177H54.5328C54.1292 18.8738 53.898 18.7858 53.7818 18.6591C53.6604 18.5264 53.5795 18.28 53.5795 17.8755V8.23399L61.2993 20.0304L61.349 20.1063H61.4396H63.6818H63.8496V19.9386V6.79788C63.8496 6.46322 63.9302 6.24335 64.061 6.10671C64.1906 5.97141 64.3973 5.88932 64.7134 5.88932H65.2516H65.4194V5.72154V4.98151V4.81372H65.2516H60.8117H60.6439V4.98151V5.72154V5.88932H60.8117H61.5966C61.9543 5.88932 62.1916 5.97369 62.3392 6.11281C62.4852 6.2501 62.5724 6.46765 62.5724 6.79788V15.2587L55.862 4.89037L55.8127 4.81372H55.7214H50.8104H50.6426V4.98151V5.72154V5.88459L50.8057 5.88926C51.3278 5.90416 51.6845 5.94141 51.8882 5.99577C52.0788 6.04651 52.1647 6.13053 52.2 6.22734L52.2023 6.23349L52.205 6.23946C52.2637 6.36865 52.302 6.61362 52.302 6.99973V17.8755C52.302 18.2585 52.2164 18.5082 52.0775 18.6587L52.0771 18.6591C51.957 18.7902 51.75 18.8738 51.4157 18.8738H50.8328H50.6651V19.0416V19.7816V19.9494H50.8328H55.3177H55.4855V19.7816V19.0416Z" fill="#737373" stroke="#737373"></path>
    <path d="M100.081 28.1488C100.081 28.2908 100.094 28.3941 100.119 28.4587C100.145 28.5232 100.197 28.5684 100.275 28.5942C100.358 28.62 100.491 28.6329 100.671 28.6329V28.9524H98.2024V28.6329C98.3574 28.6329 98.4671 28.6233 98.5316 28.6039C98.6027 28.5845 98.648 28.5458 98.6671 28.4877C98.693 28.4296 98.7061 28.3328 98.7061 28.1973V25.8736C98.7061 25.2152 98.4705 24.886 97.999 24.886C97.8312 24.886 97.6795 24.9247 97.544 25.0022C97.4151 25.0732 97.2698 25.1894 97.1084 25.3507V28.1682C97.1084 28.3102 97.1211 28.4135 97.147 28.478C97.1795 28.5426 97.2309 28.5845 97.302 28.6039C97.3732 28.6233 97.4859 28.6329 97.641 28.6329V28.9524H95.1138V28.6329C95.301 28.6329 95.4366 28.62 95.5205 28.5942C95.6044 28.5684 95.6594 28.5232 95.6852 28.4587C95.7175 28.3941 95.7336 28.2908 95.7336 28.1488V25.283C95.7336 25.1345 95.7141 25.0377 95.6755 24.9925C95.6433 24.9409 95.5691 24.9151 95.4527 24.9151H95.1332V24.5955L96.6534 24.3535H97.0698V24.9925H97.0987C97.3245 24.7795 97.5601 24.6117 97.8054 24.4891C98.0574 24.36 98.3477 24.2954 98.6769 24.2954C99.1222 24.2954 99.4675 24.4213 99.7128 24.673C99.9581 24.9247 100.081 25.3056 100.081 25.8155V28.1488Z" fill="#737373"></path>
    <path d="M92.1282 29.0588C91.3148 29.0588 90.7114 28.8652 90.3178 28.4779C89.9238 28.0906 89.7272 27.4936 89.7272 26.6868C89.7272 25.8735 89.9238 25.27 90.3178 24.8762C90.7178 24.4825 91.3278 24.2856 92.1476 24.2856C92.9544 24.2856 93.5513 24.4793 93.9386 24.8666C94.3262 25.2538 94.5198 25.8541 94.5198 26.6674C94.5198 27.4871 94.3228 28.0906 93.9292 28.4779C93.5419 28.8652 92.9416 29.0588 92.1282 29.0588ZM92.1379 28.72C92.4671 28.72 92.706 28.565 92.8544 28.2552C93.0027 27.9454 93.0772 27.4613 93.0772 26.8029C93.0772 26.0413 93.0027 25.4894 92.8544 25.1473C92.706 24.8052 92.4607 24.6342 92.1185 24.6342C91.7829 24.6342 91.5409 24.8052 91.3923 25.1473C91.244 25.483 91.1698 25.9993 91.1698 26.6965C91.1698 27.4129 91.244 27.9293 91.3923 28.2455C91.5409 28.5618 91.7893 28.72 92.1379 28.72Z" fill="#737373"></path>
    <path d="M87.8534 23.8114C87.6403 23.8114 87.4534 23.7372 87.292 23.5887C87.137 23.4403 87.0595 23.2596 87.0595 23.0465C87.0595 22.8335 87.137 22.6528 87.292 22.5044C87.4534 22.3495 87.6403 22.272 87.8534 22.272C88.0729 22.272 88.2601 22.3495 88.4152 22.5044C88.5762 22.6528 88.6571 22.8335 88.6571 23.0465C88.6571 23.2596 88.5762 23.4403 88.4152 23.5887C88.2537 23.7372 88.0665 23.8114 87.8534 23.8114ZM86.585 28.633C86.7722 28.633 86.9078 28.6201 86.9917 28.5943C87.0756 28.5685 87.1306 28.5233 87.1564 28.4588C87.1887 28.3942 87.2048 28.2909 87.2048 28.149V25.2831C87.2048 25.1346 87.1853 25.0378 87.1467 24.9926C87.1145 24.941 87.04 24.9152 86.9239 24.9152H86.6044V24.5957L88.1537 24.3536H88.5796V28.149C88.5796 28.2909 88.5923 28.3942 88.6182 28.4588C88.644 28.5233 88.6957 28.5685 88.7732 28.5943C88.8507 28.6201 88.9732 28.633 89.141 28.633V28.9525H86.585V28.633Z" fill="#737373"></path>
    <path d="M85.0373 29.0686C84.6175 29.0686 84.298 28.9557 84.0786 28.7298C83.8658 28.5038 83.7591 28.1424 83.7591 27.6454V24.7505H83.1782V24.431C83.5527 24.3664 83.8883 24.1696 84.1853 23.8404C84.4822 23.5112 84.692 23.1271 84.8145 22.6882H85.1339V24.4019H86.0829V24.7505H85.1339V27.5873C85.1339 27.8971 85.1759 28.1263 85.2598 28.2747C85.3437 28.4167 85.4826 28.4877 85.6762 28.4877C85.7729 28.4877 85.8635 28.4716 85.9473 28.4393C86.0312 28.4006 86.1215 28.3554 86.2185 28.3038L86.3829 28.5748C86.3571 28.5942 86.2765 28.6523 86.141 28.7491C86.0118 28.8395 85.8504 28.9137 85.6567 28.9718C85.4631 29.0364 85.2567 29.0686 85.0373 29.0686Z" fill="#737373"></path>
    <path d="M83.0782 28.7492C82.7554 28.9557 82.3681 29.059 81.9164 29.059C81.6711 29.059 81.4742 29.0171 81.3258 28.9331C81.1772 28.8492 81.0805 28.7331 81.0352 28.5846C80.6352 28.9009 80.1802 29.059 79.6701 29.059C79.2443 29.059 78.9151 28.9719 78.6825 28.7976C78.4503 28.6233 78.3342 28.3684 78.3342 28.0327C78.3342 27.6003 78.5698 27.2324 79.0409 26.929C79.5121 26.6256 80.1671 26.3965 81.0064 26.2416V25.5154C81 25.2314 80.945 25.0249 80.8416 24.8958C80.7386 24.7602 80.5513 24.6925 80.2802 24.6925C80.1252 24.6925 79.993 24.7183 79.8832 24.7699C79.7735 24.8151 79.7185 24.8732 79.7185 24.9442C79.7185 24.9958 79.751 25.0604 79.8154 25.1378C79.8671 25.2024 79.9027 25.2572 79.9218 25.3024C79.9477 25.3476 79.9607 25.4121 79.9607 25.496C79.9607 25.6639 79.8993 25.8091 79.7768 25.9318C79.654 26.0479 79.4926 26.106 79.2926 26.106C79.0859 26.106 78.9215 26.0479 78.7987 25.9318C78.6826 25.8091 78.6245 25.6671 78.6245 25.5057C78.6245 25.3056 78.6987 25.1152 78.8473 24.9345C79.002 24.7538 79.2409 24.6053 79.5638 24.4891C79.8866 24.3665 80.2899 24.3052 80.7738 24.3052C81.3292 24.3052 81.7326 24.431 81.9842 24.6828C82.2423 24.928 82.3715 25.3185 82.3715 25.8543V27.9843C82.3715 28.2167 82.3909 28.3716 82.4295 28.449C82.4748 28.5265 82.5456 28.5652 82.6426 28.5652C82.7265 28.5652 82.7973 28.5523 82.8557 28.5265C82.9201 28.4942 82.9587 28.4749 82.9718 28.4684L83.0782 28.7492ZM79.6993 27.81C79.6993 28.0424 79.7477 28.2135 79.8443 28.3232C79.9477 28.4265 80.106 28.4781 80.3188 28.4781C80.5255 28.4781 80.7547 28.3845 81.0064 28.1973V26.6385C80.5544 26.7611 80.2221 26.9161 80.0091 27.1033C79.8023 27.2904 79.6993 27.526 79.6993 27.81Z" fill="#737373"></path>
    <path d="M73.4406 25.0799C73.3826 24.9378 73.3148 24.8442 73.2373 24.799C73.1661 24.7474 73.0436 24.7216 72.8691 24.7216V24.4021H75.348V24.7216H74.9701C74.8477 24.7216 74.7863 24.77 74.7863 24.8668C74.7863 24.912 74.7926 24.9508 74.8057 24.983L75.8319 27.5971H75.8514L76.8678 25.0024C76.8809 24.9508 76.8873 24.912 76.8873 24.8862C76.8873 24.7765 76.8228 24.7216 76.6936 24.7216H76.3353V24.4021H77.904V24.7216C77.7359 24.7216 77.6101 24.7507 77.5262 24.8087C77.4423 24.8604 77.3715 24.9636 77.3134 25.1186L75.7061 28.9526H74.9993L73.4406 25.0799Z" fill="#737373"></path>
    <path d="M70.1641 29.0588C69.3506 29.0588 68.7473 28.8652 68.3537 28.4779C67.9597 28.0906 67.7631 27.4936 67.7631 26.6868C67.7631 25.8735 67.9597 25.27 68.3537 24.8762C68.7537 24.4825 69.3637 24.2856 70.1835 24.2856C70.9902 24.2856 71.5872 24.4793 71.9745 24.8666C72.3617 25.2538 72.5553 25.8541 72.5553 26.6674C72.5553 27.4871 72.3587 28.0906 71.9647 28.4779C71.5775 28.8652 70.9775 29.0588 70.1641 29.0588ZM70.1738 28.72C70.503 28.72 70.7416 28.565 70.8902 28.2552C71.0386 27.9454 71.1127 27.4613 71.1127 26.8029C71.1127 26.0413 71.0386 25.4894 70.8902 25.1473C70.7416 24.8052 70.4966 24.6342 70.1543 24.6342C69.8188 24.6342 69.5768 24.8052 69.4282 25.1473C69.2798 25.483 69.2057 25.9993 69.2057 26.6965C69.2057 27.4129 69.2798 27.9293 69.4282 28.2455C69.5768 28.5618 69.8251 28.72 70.1738 28.72Z" fill="#737373"></path>
    <path d="M66.79 28.1488C66.79 28.2908 66.8027 28.3941 66.8286 28.4587C66.8544 28.5232 66.9061 28.5684 66.9836 28.5942C67.0675 28.62 67.1997 28.6329 67.3806 28.6329V28.9524H64.9115V28.6329C65.0665 28.6329 65.1762 28.6233 65.2407 28.6039C65.3118 28.5845 65.3568 28.5458 65.3762 28.4877C65.4021 28.4296 65.4152 28.3328 65.4152 28.1973V25.8736C65.4152 25.2152 65.1796 24.886 64.7081 24.886C64.5403 24.886 64.3886 24.9247 64.2531 25.0022C64.1242 25.0732 63.9789 25.1894 63.8175 25.3507V28.1682C63.8175 28.3102 63.8303 28.4135 63.8561 28.478C63.8886 28.5426 63.94 28.5845 64.0111 28.6039C64.0823 28.6233 64.195 28.6329 64.3501 28.6329V28.9524H61.8229V28.6329C62.0101 28.6329 62.1457 28.62 62.2296 28.5942C62.3135 28.5684 62.3685 28.5232 62.3944 28.4587C62.4266 28.3941 62.4427 28.2908 62.4427 28.1488V25.283C62.4427 25.1345 62.4232 25.0377 62.3846 24.9925C62.3524 24.9409 62.2779 24.9151 62.1618 24.9151H61.8423V24.5955L63.3625 24.3535H63.7789V24.9925H63.8078C64.0336 24.7795 64.2692 24.6117 64.5145 24.4891C64.7665 24.36 65.0568 24.2954 65.386 24.2954C65.8313 24.2954 66.1766 24.4213 66.4219 24.673C66.6672 24.9247 66.79 25.3056 66.79 25.8155V28.1488Z" fill="#737373"></path>
    <path d="M61.2369 26.7159H58.3423C58.3614 27.3291 58.4584 27.7745 58.6325 28.052C58.8067 28.3231 59.0973 28.4587 59.504 28.4587C60.1107 28.4587 60.5463 28.1585 60.8111 27.5582L61.1403 27.7325C60.9725 28.1327 60.7369 28.4554 60.4335 28.7007C60.1366 28.9395 59.6846 29.0589 59.0778 29.0589C58.3614 29.0589 57.8195 28.8621 57.4513 28.4683C57.0835 28.0682 56.8997 27.4743 56.8997 26.6869C56.8997 25.8929 57.0866 25.2959 57.4611 24.8957C57.8356 24.4955 58.3842 24.2954 59.107 24.2954C60.5272 24.2954 61.2369 25.0732 61.2369 26.6288V26.7159ZM59.7943 26.3674C59.7943 25.9478 59.7752 25.6186 59.7362 25.3798C59.704 25.1345 59.6362 24.9505 59.5329 24.8279C59.4299 24.7053 59.2846 24.644 59.0973 24.644C58.8456 24.644 58.6584 24.7731 58.5359 25.0312C58.4131 25.283 58.3487 25.7283 58.3423 26.3674H59.7943Z" fill="#737373"></path>
    <path d="M50.8104 28.6331C51.0363 28.6331 51.1947 28.6202 51.2849 28.5943C51.3816 28.5685 51.443 28.5201 51.4688 28.4491C51.501 28.3781 51.5171 28.2587 51.5171 28.0909V23.4339C51.5171 23.2661 51.501 23.1466 51.4688 23.0757C51.4366 22.9982 51.3718 22.9466 51.2752 22.9207C51.1849 22.8949 51.0299 22.882 50.8104 22.882V22.5625H53.7926C55.3611 22.5625 56.1453 23.0853 56.1453 24.131C56.1453 24.5892 56 24.9539 55.7094 25.2251C55.4192 25.4897 55.0349 25.6607 54.5574 25.7382V25.7575C54.9574 25.835 55.2416 25.9834 55.4094 26.2029C55.5836 26.4159 55.7128 26.7483 55.7967 27.2002L55.8839 27.6068C55.9611 27.9747 56.0581 28.2393 56.1742 28.4007C56.297 28.5556 56.4936 28.6331 56.7648 28.6331V28.9526H54.9832C54.893 28.8816 54.8091 28.7654 54.7316 28.604C54.6541 28.4427 54.593 28.2619 54.5477 28.0619L54.2571 26.7257C54.2057 26.4805 54.1151 26.2965 53.9863 26.1739C53.8634 26.0512 53.6829 25.9899 53.444 25.9899H52.9889V28.0909C52.9889 28.2523 53.0017 28.3717 53.0275 28.4491C53.0598 28.5201 53.1212 28.5685 53.2114 28.5943C53.3084 28.6202 53.4601 28.6331 53.6665 28.6331V28.9526H50.8104V28.6331ZM53.3859 25.6026C53.8249 25.6026 54.1473 25.4961 54.3541 25.2831C54.5604 25.0637 54.6638 24.7216 54.6638 24.2568C54.6638 23.805 54.5638 23.4726 54.3638 23.2596C54.1702 23.0402 53.8601 22.9304 53.4343 22.9304C53.2534 22.9304 53.1343 22.9562 53.0759 23.0079C53.0178 23.053 52.9889 23.1466 52.9889 23.2886V25.6026H53.3859Z" fill="#737373"></path>
  </g>
  <defs>
    <clipPath id="clip0_1036_3117">
      <rect width="100.671" height="50" fill="white"></rect>
    </clipPath>
  </defs>
</svg>
