<?xml version="1.0" encoding="UTF-8"?>
<svg xmlns="http://www.w3.org/2000/svg" width="191" height="50" viewBox="0 0 191 50" fill="none">
  <path d="M6.98065 36.528V11.3547L0 15.4347V40.454L16.2882 49.9999V41.9552L6.98065 36.528Z" fill="#1E2021"></path>
  <path fill-rule="evenodd" clip-rule="evenodd" d="M26.3724 0L9.30859 10.0077V35.181L16.2893 39.261V15.2041L25.209 20.4389V30.5235L18.6162 26.6359V34.6805L26.3724 39.2226L43.4363 29.2148V9.96916L26.3724 0ZM17.5303 13.241L26.3724 8.04464L35.2145 13.241L26.3724 18.4372L17.5303 13.241ZM36.4556 25.2887L27.5359 30.5235V20.4389L36.4556 15.2041V25.2887Z" fill="#1E2021"></path>
  <path d="M136.162 8.46826V29.2535H132.826V8.46826H136.162Z" fill="#1E2021"></path>
  <path d="M99.166 22.094C99.166 17.9369 102.269 14.6266 106.728 14.6266C110.296 14.6266 113.593 17.167 113.98 20.8236H110.723C110.296 18.9761 108.629 17.7059 106.728 17.7059C104.169 17.7059 102.501 19.6304 102.501 22.094C102.501 24.5574 104.13 26.4434 106.728 26.4434C108.629 26.4819 110.296 25.1732 110.723 23.3256H113.98C113.593 27.0208 110.296 29.5227 106.728 29.5227C102.269 29.5227 99.166 26.2125 99.166 22.094Z" fill="#1E2021"></path>
  <path fill-rule="evenodd" clip-rule="evenodd" d="M85.3962 14.9345V29.2533H82.061V27.3288C80.8588 28.7529 79.1136 29.5612 77.2133 29.5612C73.2576 29.5612 70.2715 26.5203 70.2715 22.1324C70.2715 17.7445 73.2576 14.6651 77.2133 14.6651C79.0749 14.6266 80.8588 15.4349 82.061 16.8976V14.9731L85.3962 14.9345ZM82.061 22.0938C82.061 19.6304 80.2771 17.6675 77.8339 17.6675C75.3906 17.6675 73.7231 19.6304 73.7231 22.0938C73.7231 24.5574 75.4294 26.4819 77.8339 26.4819C80.2383 26.4819 82.061 24.5574 82.061 22.0938Z" fill="#1E2021"></path>
  <path fill-rule="evenodd" clip-rule="evenodd" d="M68.6446 22.0939C68.6446 26.4819 65.6584 29.5613 61.7028 29.5613C59.8412 29.5997 58.0573 28.7914 56.8938 27.3672V36.2202H53.5586V14.9731H56.8938V16.8976C58.096 15.4735 59.8412 14.6652 61.7415 14.6652C65.6972 14.6652 68.6446 17.7059 68.6446 22.0939ZM65.2319 22.0939C65.2319 19.669 63.5255 17.7059 61.0823 17.7059C58.639 17.7059 56.8938 19.6304 56.8938 22.0939C56.8938 24.5574 58.6778 26.5204 61.1211 26.5204C63.5642 26.5204 65.2319 24.5574 65.2319 22.0939Z" fill="#1E2021"></path>
  <path d="M98.5067 18.2063V14.6652C95.9859 14.6652 93.7754 15.5504 92.2629 17.398V14.9345H88.9277V29.2533H92.2629V23.4026C92.2629 19.746 94.4735 17.8215 98.5067 18.2063Z" fill="#1E2021"></path>
  <path fill-rule="evenodd" clip-rule="evenodd" d="M118.789 23.2486H129.998C130.656 18.0908 127.321 14.6651 122.822 14.6266C118.595 14.6266 115.57 17.9754 115.57 22.094C115.57 26.2125 118.44 29.5227 123.21 29.5227C126.235 29.5227 128.911 27.5982 129.842 24.7498H126.584C125.886 26.0586 124.606 26.6743 123.055 26.6743C120.961 26.7513 119.138 25.2887 118.789 23.2486ZM126.778 20.7852H118.867C119.254 18.8221 121 17.4365 122.977 17.5135C124.917 17.4749 126.545 18.8991 126.778 20.7852Z" fill="#1E2021"></path>
  <path d="M151.906 29.2535V26.1742H143.453V8.46826H140.117V29.2535H151.906Z" fill="#1E2021"></path>
  <path fill-rule="evenodd" clip-rule="evenodd" d="M167.498 14.9345V29.2533H164.162V27.3288C162.96 28.7529 161.215 29.5612 159.314 29.5612C155.358 29.5612 152.373 26.5203 152.373 22.1324C152.373 17.7445 155.358 14.6651 159.314 14.6651C161.177 14.6266 162.96 15.4349 164.162 16.8976V14.9731L167.498 14.9345ZM164.124 22.0938C164.124 19.6304 162.339 17.6675 159.896 17.6675C157.453 17.6675 155.785 19.6304 155.785 22.0938C155.785 24.5574 157.492 26.4819 159.935 26.4819C162.379 26.4819 164.124 24.5574 164.124 22.0938Z" fill="#1E2021"></path>
  <path fill-rule="evenodd" clip-rule="evenodd" d="M179.208 29.5613C183.163 29.5613 186.15 26.482 186.15 22.0939C186.15 17.706 183.163 14.6652 179.208 14.7036C177.346 14.6652 175.563 15.4735 174.361 16.9361V8.50659H171.025V29.2918H174.361V27.3288C175.523 28.753 177.308 29.5997 179.208 29.5613ZM178.588 17.706C181.031 17.706 182.737 19.6691 182.737 22.0939C182.737 24.5575 181.069 26.5204 178.626 26.5204C176.183 26.5204 174.399 24.5575 174.399 22.0939C174.399 19.6305 176.145 17.706 178.588 17.706Z" fill="#1E2021"></path>
  <path fill-rule="evenodd" clip-rule="evenodd" d="M187.508 11.7782H188.012V10.893H188.245C188.516 10.893 188.632 11.0085 188.671 11.2395C188.71 11.5089 188.749 11.7013 188.827 11.7782H189.369C189.331 11.7013 189.291 11.5858 189.214 11.2395C189.136 10.9315 189.02 10.7776 188.827 10.7006V10.662C189.058 10.585 189.253 10.3926 189.253 10.1617C189.253 9.96913 189.176 9.77673 189.058 9.69975C188.904 9.62276 188.71 9.54578 188.323 9.54578C187.974 9.54578 187.701 9.58434 187.508 9.62276V11.7782ZM188.283 10.5466H188.05V9.93071C188.09 9.89215 188.205 9.89228 188.323 9.89228C188.632 9.89228 188.787 10.0461 188.787 10.2387C188.787 10.4696 188.554 10.5466 188.283 10.5466Z" fill="#1E2021"></path>
  <path fill-rule="evenodd" clip-rule="evenodd" d="M188.361 12.8176C189.602 12.8176 190.571 11.8554 190.571 10.6237C190.571 9.43052 189.602 8.46826 188.361 8.46826C187.119 8.46826 186.15 9.43052 186.15 10.6237C186.15 11.8554 187.119 12.8176 188.361 12.8176ZM188.361 12.3559C187.392 12.3559 186.693 11.586 186.693 10.6237C186.693 9.6999 187.43 8.89162 188.361 8.89162C189.291 8.89162 189.99 9.66148 189.99 10.6237C189.99 11.586 189.291 12.3559 188.361 12.3559Z" fill="#1E2021"></path>
</svg>
