<?xml version="1.0" encoding="UTF-8"?>
<svg xmlns="http://www.w3.org/2000/svg" width="76" height="76" viewBox="0 0 76 76" fill="none">
  <mask id="mask0_107_70" style="mask-type:alpha" maskUnits="userSpaceOnUse" x="0" y="0" width="76" height="76">
    <rect x="0.134766" y="0.5" width="75" height="75" fill="#D9D9D9"></rect>
  </mask>
  <g mask="url(#mask0_107_70)">
    <path d="M31.8068 66.125L30.677 57.0866C29.6794 56.7861 28.6007 56.3133 27.4409 55.6683C26.281 55.0232 25.2944 54.3321 24.4811 53.595L16.1458 57.1406L10.3164 46.9844L17.522 41.5516C17.4298 40.9867 17.3537 40.4048 17.2936 39.8059C17.2335 39.2069 17.2034 38.625 17.2034 38.0601C17.2034 37.5352 17.2335 36.9834 17.2936 36.4045C17.3537 35.8255 17.4298 35.1735 17.522 34.4484L10.3164 29.0156L16.1458 18.9795L24.421 22.4652C25.3545 21.6879 26.3641 20.9868 27.4498 20.3618C28.5356 19.7368 29.5913 19.254 30.617 18.9134L31.8068 9.875H43.4655L44.5953 18.9735C45.7932 19.3942 46.8519 19.877 47.7714 20.4219C48.6909 20.9667 49.6374 21.6478 50.6109 22.4652L59.1266 18.9795L64.9559 29.0156L57.51 34.6286C57.6823 35.2736 57.7784 35.8656 57.7984 36.4045C57.8185 36.9433 57.8285 37.4752 57.8285 38C57.8285 38.4848 57.8085 38.9966 57.7684 39.5355C57.7283 40.0743 57.6362 40.7264 57.492 41.4916L64.8177 46.9844L58.9884 57.1406L50.6109 53.5348C49.6374 54.3522 48.6578 55.0533 47.6723 55.6382C46.6867 56.2232 45.661 56.6859 44.5953 57.0265L43.4655 66.125H31.8068ZM34.5112 63H40.623L41.7768 54.5384C43.3513 54.1218 44.7686 53.5499 46.0286 52.8227C47.2886 52.0955 48.5716 51.099 49.8777 49.833L57.6723 53.1562L60.7792 47.8438L53.9402 42.7055C54.2007 41.8161 54.3729 40.9978 54.4571 40.2506C54.5412 39.5034 54.5833 38.7532 54.5833 38C54.5833 37.2067 54.5412 36.4565 54.4571 35.7494C54.3729 35.0422 54.2007 34.264 53.9402 33.4147L60.8994 28.1562L57.7924 22.8438L49.8177 26.1851C48.8721 25.1474 47.6291 24.1749 46.0887 23.2674C44.5482 22.36 43.0909 21.758 41.7167 21.4616L40.7612 13H34.5292L33.5556 21.4014C31.9811 21.738 30.5338 22.2798 29.2137 23.027C27.8936 23.7742 26.5805 24.8009 25.2744 26.107L17.4799 22.8438L14.373 28.1562L21.1518 33.2163C20.8914 33.9175 20.7091 34.6787 20.6049 35.5C20.5008 36.3213 20.4487 37.1747 20.4487 38.0601C20.4487 38.8534 20.5008 39.6406 20.6049 40.4219C20.7091 41.2031 20.8714 41.9643 21.0917 42.7055L14.373 47.8438L17.4799 53.1562L25.2143 49.875C26.4402 51.113 27.7133 52.1055 29.0334 52.8527C30.3535 53.6 31.8409 54.1819 33.4955 54.5986L34.5112 63ZM37.552 45.8125C39.7315 45.8125 41.5785 45.0553 43.0929 43.5409C44.6073 42.0264 45.3645 40.1795 45.3645 38C45.3645 35.8205 44.6073 33.9736 43.0929 32.4591C41.5785 30.9447 39.7315 30.1875 37.552 30.1875C35.3605 30.1875 33.5105 30.9447 32.0021 32.4591C30.4937 33.9736 29.7395 35.8205 29.7395 38C29.7395 40.1795 30.4937 42.0264 32.0021 43.5409C33.5105 45.0553 35.3605 45.8125 37.552 45.8125Z" fill="#ED9507"></path>
  </g>
</svg>
