<?xml version="1.0" encoding="UTF-8"?>
<svg xmlns="http://www.w3.org/2000/svg" width="709" height="650" viewBox="0 0 709 650" fill="none">
  <path d="M538.568 164.595C538.568 164.595 485.112 107.093 496.024 1.16309L619.916 21.1476C619.916 21.1476 614.705 110.71 538.629 164.595H538.568Z" fill="#ED9507"></path>
  <path d="M545.046 180.763C545.046 180.763 602.547 234.219 708.477 223.307L688.493 99.415C688.493 99.415 598.931 104.626 545.046 180.702V180.763Z" fill="#ED9507"></path>
  <path d="M325 650C504.493 650 650 504.492 650 325C650 145.507 504.493 0 325 0C145.507 0 0 145.507 0 325C0 504.492 145.507 650 325 650Z" fill="#FAF4F6"></path>
  <path d="M482.611 430.178H167.311C118.409 430.178 78.8062 390.575 78.8062 341.673C78.8062 292.771 118.409 253.168 167.311 253.168H482.691C531.593 253.168 571.196 292.771 571.196 341.673C571.196 390.575 531.593 430.178 482.691 430.178H482.611Z" fill="#1E2021"></path>
  <path d="M283.393 332.025L152.456 291.251L147.955 305.736L208.926 326.996C201.718 336.646 198.899 349.353 202.26 361.898C208.132 383.812 230.616 396.794 252.531 390.922C270.418 386.129 282.112 370.297 282.71 352.708L282.865 352.666L283.393 332.025Z" fill="#FAF4F6"></path>
  <path d="M366.61 332.025L497.547 291.251L502.048 305.736L441.077 326.996C448.285 336.646 451.104 349.353 447.743 361.898C441.871 383.812 419.387 396.793 397.472 390.922C379.585 386.129 367.892 370.297 367.293 352.708L367.138 352.666L366.61 332.025Z" fill="#FAF4F6"></path>
</svg>
